<svg width="24" height="24" viewBox="0 0 24 24" fill="none" xmlns="http://www.w3.org/2000/svg">
<path d="M19.6659 16.811C19.389 17.4565 19.0469 18.072 18.6449 18.648C18.1079 19.415 17.6669 19.945 17.3289 20.24C16.8039 20.722 16.2399 20.97 15.6369 20.984C15.2049 20.984 14.6829 20.861 14.0749 20.611C13.4649 20.362 12.9049 20.24 12.3919 20.24C11.8549 20.24 11.2789 20.362 10.6619 20.611C10.0459 20.861 9.54787 20.992 9.16687 21.004C8.58987 21.029 8.01287 20.775 7.43787 20.24C7.07087 19.92 6.61187 19.37 6.06087 18.592C5.47087 17.763 4.98587 16.798 4.60587 15.701C4.19887 14.514 3.99487 13.366 3.99487 12.254C3.99487 10.981 4.26987 9.88202 4.82087 8.96202C5.23762 8.23949 5.83342 7.63646 6.55087 7.21102C7.25834 6.78669 8.06596 6.55821 8.89087 6.54902C9.35087 6.54902 9.95387 6.69102 10.7009 6.97102C11.4479 7.25102 11.9279 7.39302 12.1369 7.39302C12.2949 7.39302 12.8259 7.22602 13.7299 6.89502C14.5829 6.58802 15.3029 6.46102 15.8929 6.51102C17.4929 6.64002 18.6939 7.27002 19.4929 8.40602C18.0629 9.27302 17.3559 10.486 17.3699 12.043C17.3819 13.256 17.8229 14.265 18.6869 15.066C19.0688 15.4316 19.5145 15.7241 20.0019 15.929C19.8959 16.236 19.7839 16.529 19.6659 16.811ZM15.9989 2.38002C15.9989 3.33002 15.6509 4.21802 14.9599 5.03902C14.1239 6.01502 13.1139 6.58002 12.0189 6.49102C12.0046 6.37156 11.9975 6.25134 11.9979 6.13102C11.9979 5.21802 12.3939 4.24202 13.1009 3.44302C13.4529 3.03902 13.9009 2.70202 14.4439 2.43402C14.9859 2.17002 15.4979 2.02402 15.9799 1.99902C15.9929 2.12702 15.9989 2.25402 15.9989 2.38002Z" fill="#121212"/>
</svg>
