<svg width="21" height="18" viewBox="0 0 21 18" fill="none" xmlns="http://www.w3.org/2000/svg">
<path d="M18.5834 0.75H2.08337C1.68555 0.75 1.30402 0.908035 1.02271 1.18934C0.741409 1.47064 0.583374 1.85218 0.583374 2.25V15.75C0.583374 16.1478 0.741409 16.5294 1.02271 16.8107C1.30402 17.092 1.68555 17.25 2.08337 17.25H18.5834C18.9812 17.25 19.3627 17.092 19.644 16.8107C19.9253 16.5294 20.0834 16.1478 20.0834 15.75V2.25C20.0834 1.85218 19.9253 1.47064 19.644 1.18934C19.3627 0.908035 18.9812 0.75 18.5834 0.75ZM18.5834 15.75H2.08337V2.25H18.5834V15.75ZM15.9584 6C15.9584 6.19891 15.8794 6.38968 15.7387 6.53033C15.5981 6.67098 15.4073 6.75 15.2084 6.75H5.45837C5.25946 6.75 5.0687 6.67098 4.92804 6.53033C4.78739 6.38968 4.70837 6.19891 4.70837 6C4.70837 5.80109 4.78739 5.61032 4.92804 5.46967C5.0687 5.32902 5.25946 5.25 5.45837 5.25H15.2084C15.4073 5.25 15.5981 5.32902 15.7387 5.46967C15.8794 5.61032 15.9584 5.80109 15.9584 6ZM15.9584 9C15.9584 9.19891 15.8794 9.38968 15.7387 9.53033C15.5981 9.67098 15.4073 9.75 15.2084 9.75H5.45837C5.25946 9.75 5.0687 9.67098 4.92804 9.53033C4.78739 9.38968 4.70837 9.19891 4.70837 9C4.70837 8.80109 4.78739 8.61032 4.92804 8.46967C5.0687 8.32902 5.25946 8.25 5.45837 8.25H15.2084C15.4073 8.25 15.5981 8.32902 15.7387 8.46967C15.8794 8.61032 15.9584 8.80109 15.9584 9ZM15.9584 12C15.9584 12.1989 15.8794 12.3897 15.7387 12.5303C15.5981 12.671 15.4073 12.75 15.2084 12.75H5.45837C5.25946 12.75 5.0687 12.671 4.92804 12.5303C4.78739 12.3897 4.70837 12.1989 4.70837 12C4.70837 11.8011 4.78739 11.6103 4.92804 11.4697C5.0687 11.329 5.25946 11.25 5.45837 11.25H15.2084C15.4073 11.25 15.5981 11.329 15.7387 11.4697C15.8794 11.6103 15.9584 11.8011 15.9584 12Z" fill="#00C8AB"/>
</svg>
