<svg width="21" height="19" viewBox="0 0 21 19" fill="none" xmlns="http://www.w3.org/2000/svg">
<path d="M20.0938 0.15625C18.0969 0.15625 15.8469 1.2625 13.4281 3.42813C11.7313 4.94688 10.2781 6.68125 9.27501 7.99375C8.43361 7.73765 7.54395 7.68209 6.67723 7.83149C5.81051 7.9809 4.9908 8.33113 4.28371 8.85416C3.57663 9.37718 3.0018 10.0585 2.60524 10.8435C2.20868 11.6285 2.00141 12.4955 2.00001 13.375C2.00001 16.3 0.481259 17.6031 0.406259 17.6688C0.284121 17.7631 0.195454 17.8942 0.153271 18.0427C0.111089 18.1912 0.117612 18.3492 0.171884 18.4938C0.219833 18.6421 0.313911 18.7712 0.440397 18.8622C0.566882 18.9533 0.719157 19.0016 0.875009 19H7.62501C8.50451 18.9986 9.37148 18.7913 10.1565 18.3948C10.9415 17.9982 11.6228 17.4234 12.1459 16.7163C12.6689 16.0092 13.0191 15.1895 13.1685 14.3228C13.3179 13.4561 13.2624 12.5664 13.0063 11.725C14.3188 10.7219 16.0531 9.26875 17.5719 7.57188C19.7375 5.15313 20.8438 2.90313 20.8438 0.90625C20.8438 0.707338 20.7647 0.516572 20.6241 0.37592C20.4834 0.235268 20.2927 0.15625 20.0938 0.15625ZM7.62501 17.5H2.43126C2.96563 16.6094 3.50001 15.25 3.50001 13.375C3.50001 12.5592 3.74194 11.7616 4.1952 11.0833C4.64846 10.4049 5.29269 9.87621 6.04644 9.564C6.80018 9.25179 7.62959 9.1701 8.42976 9.32926C9.22993 9.48843 9.96493 9.88129 10.5418 10.4582C11.1187 11.0351 11.5116 11.7701 11.6707 12.5703C11.8299 13.3704 11.7482 14.1998 11.436 14.9536C11.1238 15.7073 10.5951 16.3516 9.91674 16.8048C9.23838 17.2581 8.44086 17.5 7.62501 17.5ZM10.6625 8.65C10.9344 8.30313 11.2531 7.90938 11.6188 7.47813C12.3692 7.98476 13.0152 8.63085 13.5219 9.38125C13.0906 9.74688 12.6969 10.0656 12.35 10.3375C11.9161 9.65967 11.3403 9.08395 10.6625 8.65ZM14.6563 8.37813C14.0953 7.59213 13.4079 6.90467 12.6219 6.34375C14.4594 4.35625 16.9344 2.18125 19.2594 1.74063C18.8188 4.06563 16.6438 6.54063 14.6563 8.37813Z" fill="#FFA942"/>
</svg>
