<svg width="24" height="24" viewBox="0 0 24 24" fill="none" xmlns="http://www.w3.org/2000/svg">
<rect width="24" height="24" transform="translate(0.000854492)" fill="white"/>
<path d="M20.9009 2H3.10085C2.80912 2 2.52933 2.11589 2.32304 2.32218C2.11675 2.52847 2.00085 2.80826 2.00085 3.1V20.9C2.00085 21.1917 2.11675 21.4715 2.32304 21.6778C2.52933 21.8841 2.80912 22 3.10085 22H12.6809V14.25H10.0809V11.25H12.6809V9C12.627 8.47176 12.6894 7.93813 12.8636 7.43654C13.0378 6.93495 13.3196 6.47755 13.6893 6.09641C14.059 5.71528 14.5076 5.41964 15.0037 5.23024C15.4997 5.04083 16.0312 4.96225 16.5609 5C17.3392 4.99521 18.1171 5.03528 18.8909 5.12V7.82H17.3009C16.0409 7.82 15.8009 8.42 15.8009 9.29V11.22H18.8009L18.4109 14.22H15.8009V22H20.9009C21.0453 22 21.1883 21.9715 21.3218 21.9163C21.4553 21.861 21.5765 21.78 21.6787 21.6778C21.7808 21.5757 21.8618 21.4544 21.9171 21.321C21.9724 21.1875 22.0009 21.0445 22.0009 20.9V3.1C22.0009 2.95555 21.9724 2.81251 21.9171 2.67905C21.8618 2.54559 21.7808 2.42433 21.6787 2.32218C21.5765 2.22004 21.4553 2.13901 21.3218 2.08373C21.1883 2.02845 21.0453 2 20.9009 2Z" fill="#4267B2"/>
</svg>
