<svg width="24" height="24" viewBox="0 0 24 24" fill="none" xmlns="http://www.w3.org/2000/svg">
<rect x="0.000854492" width="24" height="24" rx="4" fill="white"/>
<path d="M21.8064 10.0415H21.0009V10H12.0009V14H17.6524C16.8279 16.3285 14.6124 18 12.0009 18C8.68735 18 6.00085 15.3135 6.00085 12C6.00085 8.6865 8.68735 6 12.0009 6C13.5304 6 14.9219 6.577 15.9814 7.5195L18.8099 4.691C17.0239 3.0265 14.6349 2 12.0009 2C6.47835 2 2.00085 6.4775 2.00085 12C2.00085 17.5225 6.47835 22 12.0009 22C17.5234 22 22.0009 17.5225 22.0009 12C22.0009 11.3295 21.9319 10.675 21.8064 10.0415Z" fill="#FFC107"/>
<path d="M3.15387 7.3455L6.43937 9.755C7.32837 7.554 9.48137 6 12.0009 6C13.5304 6 14.9219 6.577 15.9814 7.5195L18.8099 4.691C17.0239 3.0265 14.6349 2 12.0009 2C8.15987 2 4.82887 4.1685 3.15387 7.3455Z" fill="#FF3D00"/>
<path d="M12.0008 21.9999C14.5838 21.9999 16.9308 21.0114 18.7053 19.4039L15.6103 16.7849C14.5726 17.574 13.3046 18.0009 12.0008 17.9999C9.39983 17.9999 7.19133 16.3414 6.35933 14.0269L3.09833 16.5394C4.75333 19.7779 8.11433 21.9999 12.0008 21.9999Z" fill="#4CAF50"/>
<path d="M21.8064 10.0415H21.0009V10H12.0009V14H17.6524C17.258 15.1082 16.5475 16.0766 15.6089 16.7855L15.6104 16.7845L18.7054 19.4035C18.4864 19.6025 22.0009 17 22.0009 12C22.0009 11.3295 21.9319 10.675 21.8064 10.0415Z" fill="#1976D2"/>
</svg>
