<svg width="20" height="18" viewBox="0 0 20 18" fill="none" xmlns="http://www.w3.org/2000/svg">
<path d="M10.4167 4.5V8.56875L13.9417 10.6031C14.0834 10.6863 14.1939 10.8136 14.2562 10.9656C14.3185 11.1176 14.3291 11.2858 14.2865 11.4445C14.244 11.6031 14.1505 11.7434 14.0204 11.8438C13.8904 11.9441 13.731 11.999 13.5667 12C13.4342 12.0037 13.3037 11.9678 13.1917 11.8969L9.29172 9.64688H9.27297L9.23547 9.61875L9.20734 9.6L9.17922 9.58125L9.15109 9.55313L9.13234 9.53438C9.11359 9.525 9.10422 9.50625 9.09484 9.49688L9.07609 9.47813L9.05734 9.44063L9.03859 9.4125L9.01984 9.38438C9.01402 9.38001 9.00929 9.37435 9.00604 9.36784C9.00278 9.36133 9.00109 9.35416 9.00109 9.34688L8.98234 9.31875C8.98234 9.30938 8.97297 9.3 8.97297 9.28125C8.96957 9.27745 8.96699 9.27299 8.96538 9.26816C8.96377 9.26332 8.96316 9.25821 8.96359 9.25313L8.94484 9.21563C8.94527 9.21055 8.94466 9.20544 8.94305 9.2006C8.94144 9.19576 8.93886 9.19131 8.93546 9.1875C8.93546 9.16875 8.93547 9.15938 8.92609 9.15V9.1125C8.92609 9.09375 8.91672 9.08438 8.91672 9.075V4.5C8.91672 4.30109 8.99573 4.11033 9.13639 3.96967C9.27704 3.82902 9.4678 3.75 9.66672 3.75C9.86563 3.75 10.0564 3.82902 10.197 3.96967C10.3377 4.11033 10.4167 4.30109 10.4167 4.5ZM19.3042 6.76875C19.3136 6.75 19.323 6.74063 19.323 6.73125L19.3417 6.70313C19.3511 6.69375 19.3511 6.675 19.3605 6.66563L19.3792 6.6375C19.3778 6.62429 19.3811 6.611 19.3886 6.6C19.3886 6.59063 19.398 6.58125 19.398 6.5625C19.4014 6.5587 19.4039 6.55424 19.4056 6.54941C19.4072 6.54457 19.4078 6.53946 19.4073 6.53438C19.4073 6.51563 19.4167 6.50625 19.4167 6.49688C19.4167 6.4875 19.4261 6.46875 19.4261 6.45938V6.42188C19.4338 6.39767 19.437 6.37224 19.4355 6.34688V2.59688C19.4355 2.39797 19.3564 2.2072 19.2158 2.06655C19.0751 1.9259 18.8844 1.84688 18.6855 1.84688C18.4866 1.84688 18.2958 1.9259 18.1551 2.06655C18.0145 2.2072 17.9355 2.39797 17.9355 2.59688V4.5375L16.0323 2.63438C14.7735 1.37618 13.1698 0.519478 11.4241 0.172592C9.67842 -0.174293 7.86907 0.00421169 6.22481 0.685539C4.58055 1.36687 3.17522 2.52042 2.18649 4.00036C1.19777 5.4803 0.670044 7.22017 0.670044 9C0.670044 10.7798 1.19777 12.5197 2.18649 13.9996C3.17522 15.4796 4.58055 16.6331 6.22481 17.3145C7.86907 17.9958 9.67842 18.1743 11.4241 17.8274C13.1698 17.4805 14.7735 16.6238 16.0323 15.3656C16.1726 15.225 16.2514 15.0345 16.2514 14.8359C16.2514 14.6373 16.1726 14.4469 16.0323 14.3063C15.9634 14.2357 15.881 14.1796 15.79 14.1413C15.699 14.103 15.6013 14.0833 15.5027 14.0833C15.404 14.0833 15.3063 14.103 15.2153 14.1413C15.1243 14.1796 15.0419 14.2357 14.973 14.3063C13.9237 15.3543 12.5874 16.0678 11.1327 16.3565C9.67809 16.6452 8.17052 16.4962 6.80056 15.9283C5.4306 15.3604 4.25976 14.3991 3.43601 13.1659C2.61227 11.9327 2.17262 10.483 2.17262 9C2.17262 7.517 2.61227 6.06728 3.43601 4.83409C4.25976 3.60091 5.4306 2.63961 6.80056 2.07171C8.17052 1.5038 9.67809 1.35479 11.1327 1.6435C12.5874 1.93222 13.9237 2.64569 14.973 3.69375L16.8761 5.59688H14.9355C14.7366 5.59688 14.5458 5.6759 14.4051 5.81655C14.2645 5.9572 14.1855 6.14797 14.1855 6.34688C14.1855 6.54579 14.2645 6.73656 14.4051 6.87721C14.5458 7.01786 14.7366 7.09688 14.9355 7.09688H18.9011L18.9386 7.07813H18.9667L19.0042 7.05938H19.0323L19.0698 7.04063L19.098 7.02188L19.1355 6.99375L19.1542 6.975L19.2667 6.87188L19.2855 6.84375L19.3042 6.76875Z" fill="#00C8AB"/>
</svg>
