<svg width="18" height="19" viewBox="0 0 18 19" fill="none" xmlns="http://www.w3.org/2000/svg">
<path d="M16.5 19.0002H12C11.6022 19.0002 11.2206 18.8422 10.9393 18.5609C10.658 18.2796 10.5 17.898 10.5 17.5002V13.0002H7.5V17.5002C7.5 17.898 7.34196 18.2796 7.06066 18.5609C6.77936 18.8422 6.39782 19.0002 6 19.0002H1.5C1.10218 19.0002 0.720644 18.8422 0.43934 18.5609C0.158035 18.2796 0 17.898 0 17.5002V8.82833C6.61368e-05 8.62021 0.0434425 8.41437 0.127371 8.22392C0.211299 8.03347 0.333942 7.86257 0.4875 7.72208L7.9875 0.906457C8.26402 0.653481 8.62522 0.513184 9 0.513184C9.37478 0.513184 9.73598 0.653481 10.0125 0.906457L17.5125 7.72208C17.6661 7.86257 17.7887 8.03347 17.8726 8.22392C17.9566 8.41437 17.9999 8.62021 18 8.82833V17.5002C18 17.898 17.842 18.2796 17.5607 18.5609C17.2794 18.8422 16.8978 19.0002 16.5 19.0002ZM7.5 11.5002H10.5C10.8978 11.5002 11.2794 11.6582 11.5607 11.9395C11.842 12.2209 12 12.6024 12 13.0002V17.5002H16.5V8.82833L9 2.01271L1.5 8.82833V17.5002H6V13.0002C6 12.6024 6.15804 12.2209 6.43934 11.9395C6.72064 11.6582 7.10218 11.5002 7.5 11.5002Z" fill="#00C8AB"/>
</svg>
