<svg width="20" height="20" viewBox="0 0 20 20" fill="none" xmlns="http://www.w3.org/2000/svg">
<path d="M19.1781 13.3L19.2062 13.2062C19.9315 11.1303 19.9315 8.86973 19.2062 6.79375L19.1781 6.7C18.4939 4.81373 17.2465 3.18333 15.6048 2.02963C13.9631 0.875926 12.0065 0.254668 9.99999 0.25C7.99283 0.251974 6.035 0.872175 4.3928 2.02624C2.7506 3.18031 1.50376 4.81222 0.821864 6.7L0.793739 6.79375C0.0685094 8.86973 0.0685094 11.1303 0.793739 13.2062L0.821864 13.3C1.50376 15.1878 2.7506 16.8197 4.3928 17.9738C6.035 19.1278 7.99283 19.748 9.99999 19.75C12.0071 19.748 13.965 19.1278 15.6072 17.9738C17.2494 16.8197 18.4962 15.1878 19.1781 13.3ZM7.60936 13.75H12.3906C11.9102 15.2413 11.0921 16.6016 9.99999 17.725C8.90788 16.6016 8.08977 15.2413 7.60936 13.75ZM7.21561 12.25C6.92819 10.7638 6.92819 9.23623 7.21561 7.75H12.7844C12.9271 8.49151 12.9993 9.24488 13 10C12.9997 10.7551 12.9275 11.5086 12.7844 12.25H7.21561ZM1.74999 10C1.75158 9.23951 1.85565 8.4827 2.05936 7.75H5.68749C5.43749 9.23958 5.43749 10.7604 5.68749 12.25H2.05936C1.85565 11.5173 1.75158 10.7605 1.74999 10ZM12.3906 6.25H7.60936C8.08977 4.75871 8.90788 3.39841 9.99999 2.275C11.0921 3.39841 11.9102 4.75871 12.3906 6.25ZM14.3125 7.75H17.9406C18.3532 9.22163 18.3532 10.7784 17.9406 12.25H14.3125C14.5625 10.7604 14.5625 9.23958 14.3125 7.75ZM17.35 6.25H13.975C13.5239 4.6706 12.7551 3.19994 11.7156 1.92813C12.9158 2.18728 14.0437 2.7093 15.0179 3.45661C15.9922 4.20393 16.7887 5.15795 17.35 6.25ZM8.28436 1.92813C7.24491 3.19994 6.47608 4.6706 6.02499 6.25H2.64999C3.21132 5.15795 4.00779 4.20393 4.98205 3.45661C5.95632 2.7093 7.08415 2.18728 8.28436 1.92813ZM2.64999 13.75H6.02499C6.47608 15.3294 7.24491 16.8001 8.28436 18.0719C7.08341 17.8146 5.95476 17.2933 4.98023 16.5458C4.0057 15.7983 3.20972 14.8432 2.64999 13.75ZM11.7156 18.0719C12.7551 16.8001 13.5239 15.3294 13.975 13.75H17.35C16.7903 14.8432 15.9943 15.7983 15.0198 16.5458C14.0452 17.2933 12.9166 17.8146 11.7156 18.0719Z" fill="#FFA942"/>
</svg>
