<svg width="171" height="27" viewBox="0 0 171 27" fill="none" xmlns="http://www.w3.org/2000/svg">
<path d="M0.24 26V3.6H5.456L14.736 18.832H11.984L21.008 3.6H26.224L26.288 26H20.464L20.4 12.464H21.392L14.64 23.792H11.824L4.88 12.464H6.096V26H0.24ZM39.5713 26.288C37.5233 26.288 35.7313 25.904 34.1953 25.136C32.6806 24.3467 31.4966 23.28 30.6432 21.936C29.8113 20.5707 29.3953 19.024 29.3953 17.296C29.3953 15.568 29.8006 14.032 30.6113 12.688C31.4433 11.3227 32.5846 10.2667 34.0353 9.52C35.4859 8.752 37.1179 8.368 38.9313 8.368C40.6379 8.368 42.1953 8.72 43.6033 9.424C45.0113 10.1067 46.1313 11.12 46.9633 12.464C47.7953 13.808 48.2113 15.44 48.2113 17.36C48.2113 17.5733 48.2006 17.8187 48.1793 18.096C48.1579 18.3733 48.1366 18.6293 48.1153 18.864H34.3873V15.664H44.8833L42.5793 16.56C42.6006 15.7707 42.4513 15.088 42.1313 14.512C41.8326 13.936 41.4059 13.488 40.8513 13.168C40.3179 12.848 39.6886 12.688 38.9633 12.688C38.2379 12.688 37.5979 12.848 37.0433 13.168C36.5099 13.488 36.0939 13.9467 35.7953 14.544C35.4966 15.12 35.3473 15.8027 35.3473 16.592V17.52C35.3473 18.3733 35.5179 19.1093 35.8593 19.728C36.2219 20.3467 36.7339 20.8267 37.3953 21.168C38.0566 21.488 38.8459 21.648 39.7633 21.648C40.6166 21.648 41.3419 21.5307 41.9393 21.296C42.5579 21.04 43.1659 20.656 43.7633 20.144L46.9633 23.472C46.1313 24.3893 45.1073 25.0933 43.8913 25.584C42.6753 26.0533 41.2353 26.288 39.5713 26.288ZM58.5665 26.288C56.9878 26.288 55.5478 25.9253 54.2465 25.2C52.9665 24.4533 51.9425 23.4187 51.1745 22.096C50.4065 20.752 50.0225 19.152 50.0225 17.296C50.0225 15.4613 50.4065 13.8827 51.1745 12.56C51.9425 11.216 52.9665 10.1813 54.2465 9.456C55.5478 8.73067 56.9878 8.368 58.5665 8.368C60.0598 8.368 61.3185 8.688 62.3425 9.328C63.3878 9.968 64.1772 10.9493 64.7105 12.272C65.2438 13.5947 65.5105 15.2693 65.5105 17.296C65.5105 19.3653 65.2545 21.0613 64.7425 22.384C64.2305 23.7067 63.4625 24.688 62.4385 25.328C61.4145 25.968 60.1238 26.288 58.5665 26.288ZM59.8465 21.456C60.5292 21.456 61.1372 21.296 61.6705 20.976C62.2252 20.656 62.6625 20.1867 62.9825 19.568C63.3025 18.928 63.4625 18.1707 63.4625 17.296C63.4625 16.4213 63.3025 15.6853 62.9825 15.088C62.6625 14.4693 62.2252 14 61.6705 13.68C61.1372 13.36 60.5292 13.2 59.8465 13.2C59.1425 13.2 58.5132 13.36 57.9585 13.68C57.4252 14 56.9985 14.4693 56.6785 15.088C56.3585 15.6853 56.1985 16.4213 56.1985 17.296C56.1985 18.1707 56.3585 18.928 56.6785 19.568C56.9985 20.1867 57.4252 20.656 57.9585 20.976C58.5132 21.296 59.1425 21.456 59.8465 21.456ZM63.6545 26V23.024L63.6865 17.296L63.3665 11.568V2.256H69.4465V26H63.6545ZM73.3583 26V8.656H79.4383V26H73.3583ZM76.3983 6.736C75.2889 6.736 74.3929 6.42666 73.7103 5.808C73.0276 5.18933 72.6863 4.42133 72.6863 3.504C72.6863 2.58667 73.0276 1.81867 73.7103 1.2C74.3929 0.581333 75.2889 0.271999 76.3983 0.271999C77.5076 0.271999 78.4036 0.570666 79.0863 1.168C79.7689 1.744 80.1103 2.49067 80.1103 3.408C80.1103 4.368 79.7689 5.168 79.0863 5.808C78.4249 6.42666 77.5289 6.736 76.3983 6.736Z" fill="#00C8AB"/>
<path d="M82.9735 19.216V14.544H92.3175V19.216H82.9735ZM92.552 26L102.44 3.6H108.68L118.6 26H112.008L104.264 6.704H106.76L99.016 26H92.552ZM97.96 21.648L99.592 16.976H110.536L112.168 21.648H97.96ZM120.108 26V8.656H126.188V26H120.108ZM123.148 6.736C122.039 6.736 121.143 6.42666 120.46 5.808C119.778 5.18933 119.436 4.42133 119.436 3.504C119.436 2.58667 119.778 1.81867 120.46 1.2C121.143 0.581333 122.039 0.271999 123.148 0.271999C124.258 0.271999 125.154 0.570666 125.836 1.168C126.519 1.744 126.86 2.49067 126.86 3.408C126.86 4.368 126.519 5.168 125.836 5.808C125.175 6.42666 124.279 6.736 123.148 6.736ZM137.692 26.288C136.113 26.288 134.673 25.9253 133.372 25.2C132.092 24.4533 131.068 23.4187 130.299 22.096C129.532 20.752 129.148 19.152 129.148 17.296C129.148 15.4613 129.532 13.8827 130.299 12.56C131.068 11.216 132.092 10.1813 133.372 9.456C134.673 8.73067 136.113 8.368 137.692 8.368C139.185 8.368 140.444 8.688 141.468 9.328C142.513 9.968 143.302 10.9493 143.836 12.272C144.369 13.5947 144.635 15.2693 144.635 17.296C144.635 19.3653 144.38 21.0613 143.868 22.384C143.356 23.7067 142.588 24.688 141.564 25.328C140.54 25.968 139.249 26.288 137.692 26.288ZM138.972 21.456C139.654 21.456 140.262 21.296 140.796 20.976C141.35 20.656 141.788 20.1867 142.108 19.568C142.428 18.928 142.588 18.1707 142.588 17.296C142.588 16.4213 142.428 15.6853 142.108 15.088C141.788 14.4693 141.35 14 140.796 13.68C140.262 13.36 139.654 13.2 138.972 13.2C138.268 13.2 137.638 13.36 137.084 13.68C136.55 14 136.124 14.4693 135.804 15.088C135.484 15.6853 135.324 16.4213 135.324 17.296C135.324 18.1707 135.484 18.928 135.804 19.568C136.124 20.1867 136.55 20.656 137.084 20.976C137.638 21.296 138.268 21.456 138.972 21.456ZM142.78 26V23.024L142.812 17.296L142.492 11.568V2.256H148.572V26H142.78ZM161.571 26.288C159.523 26.288 157.731 25.904 156.195 25.136C154.681 24.3467 153.497 23.28 152.643 21.936C151.811 20.5707 151.395 19.024 151.395 17.296C151.395 15.568 151.801 14.032 152.611 12.688C153.443 11.3227 154.585 10.2667 156.035 9.52C157.486 8.752 159.118 8.368 160.931 8.368C162.638 8.368 164.195 8.72 165.603 9.424C167.011 10.1067 168.131 11.12 168.963 12.464C169.795 13.808 170.211 15.44 170.211 17.36C170.211 17.5733 170.201 17.8187 170.179 18.096C170.158 18.3733 170.137 18.6293 170.115 18.864H156.387V15.664H166.883L164.579 16.56C164.601 15.7707 164.451 15.088 164.131 14.512C163.833 13.936 163.406 13.488 162.851 13.168C162.318 12.848 161.689 12.688 160.963 12.688C160.238 12.688 159.598 12.848 159.043 13.168C158.51 13.488 158.094 13.9467 157.795 14.544C157.497 15.12 157.347 15.8027 157.347 16.592V17.52C157.347 18.3733 157.518 19.1093 157.859 19.728C158.222 20.3467 158.734 20.8267 159.395 21.168C160.057 21.488 160.846 21.648 161.763 21.648C162.617 21.648 163.342 21.5307 163.939 21.296C164.558 21.04 165.166 20.656 165.763 20.144L168.963 23.472C168.131 24.3893 167.107 25.0933 165.891 25.584C164.675 26.0533 163.235 26.288 161.571 26.288Z" fill="#FFA942"/>
</svg>
