<svg width="20" height="20" viewBox="0 0 20 20" fill="none" xmlns="http://www.w3.org/2000/svg">
<path d="M19.2156 4.36552C19.1744 4.27177 19.1151 4.18707 19.0411 4.11629C18.9671 4.0455 18.8798 3.99002 18.7843 3.95302C18.6888 3.91719 18.5868 3.902 18.485 3.90846C18.3832 3.91493 18.2839 3.9429 18.1937 3.99052C18.1171 4.01974 18.0493 4.06817 17.9968 4.13115L14.3406 7.77802L12.5781 7.42177L12.2218 5.65927L15.8687 2.00302C15.9317 1.95054 15.9801 1.88274 16.0093 1.80615C16.057 1.71594 16.0849 1.61666 16.0914 1.51485C16.0979 1.41305 16.0827 1.31103 16.0468 1.21552C16.0098 1.12003 15.9544 1.03278 15.8836 0.958781C15.8128 0.884778 15.7281 0.825475 15.6343 0.784273C14.3902 0.257987 13.0167 0.117135 11.6916 0.379935C10.3665 0.642736 9.15071 1.2971 8.20155 2.25838C7.25239 3.21966 6.6135 4.44362 6.36753 5.77196C6.12156 7.10029 6.27982 8.47187 6.82185 9.70927L1.16872 14.5936C1.15935 14.603 1.1406 14.6124 1.13122 14.6311C0.852298 14.909 0.630981 15.2392 0.479969 15.6028C0.328957 15.9664 0.251221 16.3562 0.251221 16.7499C0.251221 17.1436 0.328957 17.5334 0.479969 17.897C0.630981 18.2606 0.852298 18.5908 1.13122 18.8686C1.40907 19.1476 1.73927 19.3689 2.10286 19.5199C2.46644 19.6709 2.85627 19.7486 3.24997 19.7486C3.64367 19.7486 4.0335 19.6709 4.39709 19.5199C4.76068 19.3689 5.09087 19.1476 5.36872 18.8686C5.38747 18.8593 5.39685 18.8405 5.40622 18.8311L10.2906 13.178C11.528 13.72 12.8996 13.8783 14.2279 13.6323C15.5562 13.3864 16.7802 12.7475 17.7415 11.7983C18.7028 10.8492 19.3571 9.63339 19.6199 8.30829C19.8827 6.98318 19.7419 5.60971 19.2156 4.36552ZM16.7125 10.7124C15.9078 11.5124 14.8663 12.0312 13.743 12.1917C12.6197 12.3522 11.4746 12.1457 10.4781 11.603C10.3261 11.5164 10.1488 11.485 9.97627 11.5141C9.80374 11.5431 9.64653 11.6308 9.53122 11.7624L4.2906 17.828C4.00526 18.0866 3.63143 18.2255 3.2465 18.216C2.86157 18.2065 2.49503 18.0494 2.22276 17.7771C1.95049 17.5048 1.79335 17.1383 1.78387 16.7534C1.7744 16.3684 1.91331 15.9946 2.17185 15.7093L8.23747 10.4686C8.36758 10.3566 8.45532 10.2034 8.48604 10.0344C8.51675 9.86552 8.48858 9.69117 8.40622 9.54052C7.92775 8.67137 7.70489 7.68461 7.76336 6.69419C7.82183 5.70377 8.15926 4.75009 8.73667 3.94327C9.31409 3.13646 10.1079 2.50943 11.0265 2.13459C11.9452 1.75975 12.9511 1.65238 13.9281 1.8249L10.8812 4.88115C10.7941 4.9681 10.7297 5.07515 10.6937 5.19287C10.6578 5.31059 10.6513 5.43535 10.675 5.55615L11.2 8.20927C11.2331 8.3532 11.3061 8.4849 11.4105 8.58934C11.515 8.69378 11.6467 8.76674 11.7906 8.7999L14.4437 9.3249C14.5645 9.34855 14.6893 9.34211 14.807 9.30614C14.9247 9.27017 15.0318 9.20578 15.1187 9.11865L18.175 6.07177C18.3246 6.9059 18.2696 7.76386 18.0149 8.5721C17.7602 9.38035 17.3133 10.1148 16.7125 10.7124Z" fill="#00C8AB"/>
</svg>
