<svg width="20" height="20" viewBox="0 0 20 20" fill="none" xmlns="http://www.w3.org/2000/svg">
<path d="M10 0.25C8.07164 0.25 6.18657 0.821828 4.58319 1.89317C2.97982 2.96451 1.73013 4.48726 0.992179 6.26884C0.254225 8.05042 0.061142 10.0108 0.437348 11.9021C0.813554 13.7934 1.74215 15.5307 3.10571 16.8943C4.46928 18.2579 6.20656 19.1865 8.09787 19.5627C9.98919 19.9389 11.9496 19.7458 13.7312 19.0078C15.5127 18.2699 17.0355 17.0202 18.1068 15.4168C19.1782 13.8134 19.75 11.9284 19.75 10C19.7475 7.4149 18.7195 4.93639 16.8916 3.10845C15.0636 1.28051 12.5851 0.252482 10 0.25ZM10 18.25C8.36831 18.25 6.77326 17.7661 5.41655 16.8596C4.05984 15.9531 3.00242 14.6646 2.378 13.1571C1.75358 11.6496 1.5902 9.99085 1.90853 8.3905C2.22685 6.79016 3.01259 5.32015 4.16637 4.16637C5.32016 3.01259 6.79017 2.22685 8.39051 1.90852C9.99085 1.59019 11.6497 1.75357 13.1571 2.37799C14.6646 3.00242 15.9531 4.05984 16.8596 5.41655C17.7661 6.77325 18.25 8.3683 18.25 10C18.2475 12.1873 17.3775 14.2843 15.8309 15.8309C14.2843 17.3775 12.1873 18.2475 10 18.25ZM11.125 14.875C11.125 15.0975 11.059 15.315 10.9354 15.5C10.8118 15.685 10.6361 15.8292 10.4305 15.9144C10.225 15.9995 9.99876 16.0218 9.78053 15.9784C9.5623 15.935 9.36184 15.8278 9.20451 15.6705C9.04718 15.5132 8.94003 15.3127 8.89662 15.0945C8.85321 14.8762 8.87549 14.65 8.96064 14.4445C9.04579 14.2389 9.18998 14.0632 9.37499 13.9396C9.55999 13.816 9.7775 13.75 10 13.75C10.2984 13.75 10.5845 13.8685 10.7955 14.0795C11.0065 14.2905 11.125 14.5766 11.125 14.875ZM13.375 8.125C13.375 8.88976 13.1153 9.63185 12.6384 10.2297C12.1615 10.8275 11.4956 11.2457 10.75 11.4156V11.5C10.75 11.6989 10.671 11.8897 10.5303 12.0303C10.3897 12.171 10.1989 12.25 10 12.25C9.80109 12.25 9.61033 12.171 9.46967 12.0303C9.32902 11.8897 9.25 11.6989 9.25 11.5V10.75C9.25 10.5511 9.32902 10.3603 9.46967 10.2197C9.61033 10.079 9.80109 10 10 10C10.3708 10 10.7334 9.89003 11.0417 9.68401C11.35 9.47798 11.5904 9.18514 11.7323 8.84253C11.8742 8.49992 11.9113 8.12292 11.839 7.75921C11.7666 7.39549 11.5881 7.0614 11.3258 6.79917C11.0636 6.53695 10.7295 6.35837 10.3658 6.28603C10.0021 6.21368 9.62508 6.25081 9.28247 6.39273C8.93986 6.53464 8.64703 6.77496 8.441 7.08331C8.23497 7.39165 8.125 7.75416 8.125 8.125C8.125 8.32391 8.04599 8.51468 7.90533 8.65533C7.76468 8.79598 7.57392 8.875 7.375 8.875C7.17609 8.875 6.98533 8.79598 6.84467 8.65533C6.70402 8.51468 6.625 8.32391 6.625 8.125C6.625 7.22989 6.98058 6.37145 7.61352 5.73851C8.24645 5.10558 9.1049 4.75 10 4.75C10.8951 4.75 11.7536 5.10558 12.3865 5.73851C13.0194 6.37145 13.375 7.22989 13.375 8.125Z" fill="#FFA942"/>
</svg>
