<svg width="18" height="20" viewBox="0 0 18 20" fill="none" xmlns="http://www.w3.org/2000/svg">
<path d="M17.0344 4.21564L13.2844 0.465637C13.1415 0.326345 12.9495 0.248887 12.75 0.250012H5.25C4.85218 0.250012 4.47064 0.408047 4.18934 0.689352C3.90804 0.970656 3.75 1.35219 3.75 1.75001V3.25001H2.25C1.85218 3.25001 1.47064 3.40805 1.18934 3.68935C0.908035 3.97066 0.75 4.35219 0.75 4.75001V18.25C0.75 18.6478 0.908035 19.0294 1.18934 19.3107C1.47064 19.592 1.85218 19.75 2.25 19.75H12.75C13.1478 19.75 13.5294 19.592 13.8107 19.3107C14.092 19.0294 14.25 18.6478 14.25 18.25V16.75H15.75C16.1478 16.75 16.5294 16.592 16.8107 16.3107C17.092 16.0294 17.25 15.6478 17.25 15.25V4.75001C17.2511 4.55048 17.1737 4.35851 17.0344 4.21564ZM12.75 18.25H2.25V4.75001H9.44062L12.75 8.05939V18.25ZM15.75 15.25H14.25V7.75001C14.2511 7.55048 14.1737 7.35851 14.0344 7.21564L10.2844 3.46564C10.1415 3.32635 9.94954 3.24889 9.75 3.25001H5.25V1.75001H12.4406L15.75 5.05939V15.25ZM10.5 12.25C10.5 12.4489 10.421 12.6397 10.2803 12.7803C10.1397 12.921 9.94891 13 9.75 13H5.25C5.05109 13 4.86032 12.921 4.71967 12.7803C4.57902 12.6397 4.5 12.4489 4.5 12.25C4.5 12.0511 4.57902 11.8603 4.71967 11.7197C4.86032 11.579 5.05109 11.5 5.25 11.5H9.75C9.94891 11.5 10.1397 11.579 10.2803 11.7197C10.421 11.8603 10.5 12.0511 10.5 12.25ZM10.5 15.25C10.5 15.4489 10.421 15.6397 10.2803 15.7803C10.1397 15.921 9.94891 16 9.75 16H5.25C5.05109 16 4.86032 15.921 4.71967 15.7803C4.57902 15.6397 4.5 15.4489 4.5 15.25C4.5 15.0511 4.57902 14.8603 4.71967 14.7197C4.86032 14.579 5.05109 14.5 5.25 14.5H9.75C9.94891 14.5 10.1397 14.579 10.2803 14.7197C10.421 14.8603 10.5 15.0511 10.5 15.25Z" fill="#FFA942"/>
</svg>
